<svg xmlns="http://www.w3.org/2000/svg" width="1440" height="130" viewBox="0 0 1440 130"><g opacity=".94"><path d="M0 4 Q153 56 320 8" fill="none" stroke="#d5ae67" stroke-width="2.5"/><path d="M61 22V41" stroke="#b77c48" stroke-width="2"/><g transform="translate(61 64) scale(0.7)"><g><path d="M0-27V-17" stroke="#eac469" stroke-width="2"/><rect x="-11" y="-20" width="22" height="7" rx="2" fill="#e7b857"/><ellipse rx="19" ry="22" fill="#b73442" stroke="#e9b962" stroke-width="2"/><path d="M-7-18 C-2-8 -2 11 -7 20 M7-18 C2-8 2 11 7 20" fill="none" stroke="#f0c57d" stroke-width="1.6"/><rect x="-12" y="18" width="24" height="5" rx="2" fill="#e7b857"/><path d="M0 23V37 M-4 25L-4 35 M4 25L4 35" stroke="#d7a64f" stroke-width="2"/></g></g><path d="M174 22V77" stroke="#b77c48" stroke-width="2"/><g transform="translate(174 100) scale(0.92)"><g><path d="M0-27V-17" stroke="#eac469" stroke-width="2"/><rect x="-11" y="-20" width="22" height="7" rx="2" fill="#e7b857"/><ellipse rx="19" ry="22" fill="#b73442" stroke="#e9b962" stroke-width="2"/><path d="M-7-18 C-2-8 -2 11 -7 20 M7-18 C2-8 2 11 7 20" fill="none" stroke="#f0c57d" stroke-width="1.6"/><rect x="-12" y="18" width="24" height="5" rx="2" fill="#e7b857"/><path d="M0 23V37 M-4 25L-4 35 M4 25L4 35" stroke="#d7a64f" stroke-width="2"/></g></g><path d="M276 22V38" stroke="#b77c48" stroke-width="2"/><g transform="translate(276 61) scale(0.67)"><g><path d="M0-27V-17" stroke="#eac469" stroke-width="2"/><rect x="-11" y="-20" width="22" height="7" rx="2" fill="#e7b857"/><ellipse rx="19" ry="22" fill="#b73442" stroke="#e9b962" stroke-width="2"/><path d="M-7-18 C-2-8 -2 11 -7 20 M7-18 C2-8 2 11 7 20" fill="none" stroke="#f0c57d" stroke-width="1.6"/><rect x="-12" y="18" width="24" height="5" rx="2" fill="#e7b857"/><path d="M0 23V37 M-4 25L-4 35 M4 25L4 35" stroke="#d7a64f" stroke-width="2"/></g></g><g transform="translate(1440 0) scale(-1 1)"><path d="M0 4 Q153 56 320 8" fill="none" stroke="#d5ae67" stroke-width="2.5"/><path d="M61 22V41" stroke="#b77c48" stroke-width="2"/><g transform="translate(61 64) scale(0.7)"><g><path d="M0-27V-17" stroke="#eac469" stroke-width="2"/><rect x="-11" y="-20" width="22" height="7" rx="2" fill="#e7b857"/><ellipse rx="19" ry="22" fill="#b73442" stroke="#e9b962" stroke-width="2"/><path d="M-7-18 C-2-8 -2 11 -7 20 M7-18 C2-8 2 11 7 20" fill="none" stroke="#f0c57d" stroke-width="1.6"/><rect x="-12" y="18" width="24" height="5" rx="2" fill="#e7b857"/><path d="M0 23V37 M-4 25L-4 35 M4 25L4 35" stroke="#d7a64f" stroke-width="2"/></g></g><path d="M174 22V77" stroke="#b77c48" stroke-width="2"/><g transform="translate(174 100) scale(0.92)"><g><path d="M0-27V-17" stroke="#eac469" stroke-width="2"/><rect x="-11" y="-20" width="22" height="7" rx="2" fill="#e7b857"/><ellipse rx="19" ry="22" fill="#b73442" stroke="#e9b962" stroke-width="2"/><path d="M-7-18 C-2-8 -2 11 -7 20 M7-18 C2-8 2 11 7 20" fill="none" stroke="#f0c57d" stroke-width="1.6"/><rect x="-12" y="18" width="24" height="5" rx="2" fill="#e7b857"/><path d="M0 23V37 M-4 25L-4 35 M4 25L4 35" stroke="#d7a64f" stroke-width="2"/></g></g><path d="M276 22V38" stroke="#b77c48" stroke-width="2"/><g transform="translate(276 61) scale(0.67)"><g><path d="M0-27V-17" stroke="#eac469" stroke-width="2"/><rect x="-11" y="-20" width="22" height="7" rx="2" fill="#e7b857"/><ellipse rx="19" ry="22" fill="#b73442" stroke="#e9b962" stroke-width="2"/><path d="M-7-18 C-2-8 -2 11 -7 20 M7-18 C2-8 2 11 7 20" fill="none" stroke="#f0c57d" stroke-width="1.6"/><rect x="-12" y="18" width="24" height="5" rx="2" fill="#e7b857"/><path d="M0 23V37 M-4 25L-4 35 M4 25L4 35" stroke="#d7a64f" stroke-width="2"/></g></g></g></g></svg>