<svg xmlns="http://www.w3.org/2000/svg" width="560" height="400" viewBox="0 0 560 400"><g opacity=".42"><g transform="translate(64 86) scale(0.66)"><g><path d="M0-27V-17" stroke="#eac469" stroke-width="2"/><rect x="-11" y="-20" width="22" height="7" rx="2" fill="#e7b857"/><ellipse rx="19" ry="22" fill="#b73442" stroke="#e9b962" stroke-width="2"/><path d="M-7-18 C-2-8 -2 11 -7 20 M7-18 C2-8 2 11 7 20" fill="none" stroke="#f0c57d" stroke-width="1.6"/><rect x="-12" y="18" width="24" height="5" rx="2" fill="#e7b857"/><path d="M0 23V37 M-4 25L-4 35 M4 25L4 35" stroke="#d7a64f" stroke-width="2"/></g></g><g transform="translate(293 41) scale(0.44)"><g><path d="M0-27V-17" stroke="#eac469" stroke-width="2"/><rect x="-11" y="-20" width="22" height="7" rx="2" fill="#e7b857"/><ellipse rx="19" ry="22" fill="#b73442" stroke="#e9b962" stroke-width="2"/><path d="M-7-18 C-2-8 -2 11 -7 20 M7-18 C2-8 2 11 7 20" fill="none" stroke="#f0c57d" stroke-width="1.6"/><rect x="-12" y="18" width="24" height="5" rx="2" fill="#e7b857"/><path d="M0 23V37 M-4 25L-4 35 M4 25L4 35" stroke="#d7a64f" stroke-width="2"/></g></g><g transform="translate(473 154) scale(0.75)"><g><path d="M0-27V-17" stroke="#eac469" stroke-width="2"/><rect x="-11" y="-20" width="22" height="7" rx="2" fill="#e7b857"/><ellipse rx="19" ry="22" fill="#b73442" stroke="#e9b962" stroke-width="2"/><path d="M-7-18 C-2-8 -2 11 -7 20 M7-18 C2-8 2 11 7 20" fill="none" stroke="#f0c57d" stroke-width="1.6"/><rect x="-12" y="18" width="24" height="5" rx="2" fill="#e7b857"/><path d="M0 23V37 M-4 25L-4 35 M4 25L4 35" stroke="#d7a64f" stroke-width="2"/></g></g><g transform="translate(145 285) scale(0.39)"><g><path d="M0-27V-17" stroke="#eac469" stroke-width="2"/><rect x="-11" y="-20" width="22" height="7" rx="2" fill="#e7b857"/><ellipse rx="19" ry="22" fill="#b73442" stroke="#e9b962" stroke-width="2"/><path d="M-7-18 C-2-8 -2 11 -7 20 M7-18 C2-8 2 11 7 20" fill="none" stroke="#f0c57d" stroke-width="1.6"/><rect x="-12" y="18" width="24" height="5" rx="2" fill="#e7b857"/><path d="M0 23V37 M-4 25L-4 35 M4 25L4 35" stroke="#d7a64f" stroke-width="2"/></g></g><g transform="translate(420 360) scale(0.48)"><g><path d="M0-27V-17" stroke="#eac469" stroke-width="2"/><rect x="-11" y="-20" width="22" height="7" rx="2" fill="#e7b857"/><ellipse rx="19" ry="22" fill="#b73442" stroke="#e9b962" stroke-width="2"/><path d="M-7-18 C-2-8 -2 11 -7 20 M7-18 C2-8 2 11 7 20" fill="none" stroke="#f0c57d" stroke-width="1.6"/><rect x="-12" y="18" width="24" height="5" rx="2" fill="#e7b857"/><path d="M0 23V37 M-4 25L-4 35 M4 25L4 35" stroke="#d7a64f" stroke-width="2"/></g></g><g transform="translate(10 376) scale(0.25)"><g><path d="M0-27V-17" stroke="#eac469" stroke-width="2"/><rect x="-11" y="-20" width="22" height="7" rx="2" fill="#e7b857"/><ellipse rx="19" ry="22" fill="#b73442" stroke="#e9b962" stroke-width="2"/><path d="M-7-18 C-2-8 -2 11 -7 20 M7-18 C2-8 2 11 7 20" fill="none" stroke="#f0c57d" stroke-width="1.6"/><rect x="-12" y="18" width="24" height="5" rx="2" fill="#e7b857"/><path d="M0 23V37 M-4 25L-4 35 M4 25L4 35" stroke="#d7a64f" stroke-width="2"/></g></g></g></svg>